<svg width="169" height="87" viewBox="0 0 169 87" fill="none" xmlns="http://www.w3.org/2000/svg">
<g clip-path="url(#clip0_457_16)">
<path d="M97.8238 73.6996C97.6313 73.5028 97.3881 73.3564 97.1752 73.1797C93.0102 69.7423 88.84 66.3049 84.6851 62.8524C84.2442 62.4839 83.3119 62.1407 83.7122 61.4795C84.2088 60.6516 84.9435 61.4189 85.511 61.6864C87.9584 62.8171 90.3956 63.9629 92.8379 65.1087C92.7011 64.614 92.5896 64.1345 92.4883 63.7408C92.4629 63.6449 92.4376 63.549 92.4123 63.453C90.3449 62.4789 88.2776 61.5097 86.2153 60.5255C85.6427 60.2529 84.5635 60.1822 84.7763 59.3443C85.0398 58.3096 85.9569 59.0667 86.5396 59.1677C88.2928 59.4806 90.046 59.8037 91.7991 60.1267C91.7839 59.7582 91.7991 59.3898 91.8498 59.0415C91.8296 58.9506 91.8245 58.8598 91.8143 58.7639C89.9396 58.4004 88.0597 58.032 86.1849 57.6685C85.7846 57.5928 85.2728 57.6181 85.2374 57.0729C85.1918 56.341 85.8302 56.447 86.271 56.3915C86.7524 56.3259 87.2388 56.341 87.7253 56.3107C89.1086 56.2249 90.4969 56.1341 91.8802 56.0483C91.8549 55.6142 91.8295 55.1801 91.7991 54.746C89.9345 54.8621 88.0698 54.9782 86.2052 55.0842C85.7441 55.1094 85.1056 55.2306 85.0347 54.5693C84.9891 54.1302 85.4806 53.9434 85.9011 53.8273C86.3673 53.6961 86.8233 53.5295 87.2794 53.3781C88.7792 52.8885 90.279 52.3938 91.7839 51.9092C91.6421 51.4953 91.5255 51.0764 91.4749 50.6625C91.4343 50.6776 91.3887 50.6928 91.3482 50.7029C89.5697 51.2783 87.8013 51.8992 86.0076 52.4241C85.4907 52.5755 84.7256 53.1964 84.381 52.3585C84.0618 51.5812 85.0651 51.4903 85.4552 51.0764C85.5921 50.93 85.8099 50.8694 85.9873 50.7584C87.8874 49.5571 89.7875 48.3507 91.6877 47.1494C91.333 46.8617 90.9884 46.5588 90.6591 46.2408C88.7944 47.4068 86.9348 48.5778 85.0651 49.7388C84.4672 50.1123 83.7223 51.1067 83.1498 50.4152C82.4353 49.5571 83.697 49.0321 84.1834 48.5072C85.9822 46.5588 87.7962 44.6256 89.6153 42.6974L89.5849 42.6722C88.9971 42.7681 88.3789 42.8186 87.7506 42.7933C86.1393 44.4994 84.528 46.2105 82.9065 47.9116C82.4809 48.3608 82.0806 49.3703 81.3358 48.7949C80.6112 48.2346 81.4878 47.5582 81.7817 47.0181C82.6785 45.3625 83.5855 43.712 84.4925 42.0564C84.4317 42.021 84.3557 42.0009 84.3 41.9605C84.0466 41.7889 83.8085 41.6021 83.5602 41.4204C83.5045 41.3901 83.4589 41.3497 83.4031 41.3194C82.5215 42.8993 81.6398 44.4792 80.748 46.0541C80.3933 46.6749 80.3021 48.0277 79.2482 47.6037C78.4172 47.2655 79.1266 46.2509 79.2988 45.5695C79.8106 43.5404 80.3376 41.5112 80.8544 39.4872C80.4794 39.1591 80.1248 38.8158 79.7802 38.4524C79.157 40.8551 78.5388 43.2577 77.9054 45.6553C77.7635 46.1954 77.8953 47.1797 77.0744 47.1191C76.0306 47.0383 76.4968 46.0339 76.4917 45.4433C76.4866 44.5347 76.4917 43.6262 76.4816 42.7227C76.1218 42.8438 75.6709 42.9246 75.1743 42.9649C75.1692 43.6312 75.1743 44.2975 75.154 44.9587C75.1338 45.6856 75.681 46.9121 74.6017 47.0535C73.6896 47.1746 73.8214 45.9077 73.644 45.2464C73.4363 44.4843 73.2438 43.712 73.036 42.9498C72.6002 42.9145 72.1797 42.8589 71.7997 42.7832C71.7439 42.7832 71.6882 42.7782 71.6324 42.7731C71.8909 43.7827 72.1493 44.7871 72.4077 45.7966C72.5648 46.4225 73.1424 47.3059 72.3925 47.6541C71.526 48.0529 71.3588 46.9424 71.0649 46.4175C70.4265 45.2818 69.7982 44.141 69.1699 43.0003C68.7138 43.0962 68.2477 43.1517 67.7764 43.1769C68.5213 44.5297 69.2661 45.8824 70.0009 47.2352C70.2491 47.6945 71.07 48.2901 70.2948 48.8252C69.5803 49.3148 69.2357 48.4315 68.8557 48.0327C66.7478 45.8219 61.4883 39.8556 59.3855 37.6347C59.122 37.9022 58.975 39.2954 58.6204 39.366C58.5292 39.3862 57.84 38.4322 57.7488 38.4474C59.9074 40.7491 65.5318 46.4225 67.6903 48.7242C68.1362 49.2037 69.0888 49.7539 68.5973 50.3647C67.9386 51.1824 67.2596 50.188 66.6769 49.8296C62.4561 47.2049 58.2606 44.5398 54.0448 41.91C53.8523 41.9655 53.6547 41.9958 53.5077 42.0261C53.0213 42.122 52.5197 42.127 52.0231 42.1018C52.0991 42.1422 52.1701 42.1775 52.2309 42.2179C56.8976 45.2111 61.5896 48.1539 66.2614 51.142C66.7276 51.4398 67.6751 51.6518 67.2748 52.4342C66.8948 53.1812 66.1347 52.5654 65.6179 52.4039C60.6725 50.8341 55.7372 49.2189 50.7969 47.639C50.7766 48.0731 50.7462 48.5021 50.7209 48.9312C55.3369 50.4253 59.9581 51.9193 64.5589 53.4639C65.2733 53.7062 66.682 53.6305 66.4945 54.5744C66.2715 55.6848 64.9643 55.0539 64.1637 55.0135C59.5324 54.7763 54.9113 54.4734 50.2851 54.1807L50.2446 54.6097C50.2193 54.9025 50.2091 55.1952 50.1889 55.493C55.0329 55.7807 59.882 56.0584 64.7261 56.3713C65.3392 56.4117 66.378 56.0483 66.4033 57.0224C66.4236 57.8957 65.3595 57.7392 64.7464 57.8603C59.806 58.8143 54.8606 59.7279 49.9203 60.6819C49.9051 61.116 49.8848 61.5451 49.8696 61.9741C54.9569 61.0353 60.0442 60.0813 65.1365 59.1424C65.7091 59.0364 66.5097 58.4812 66.8137 59.2181C67.1988 60.1671 66.1195 60.2276 65.5672 60.4901C60.6269 62.8372 55.6663 65.149 50.7209 67.4911C50.6195 67.5416 50.4979 67.582 50.3763 67.6274C50.5182 68.0312 50.6956 68.4249 50.9185 68.8035C51.0148 68.7429 51.111 68.6874 51.1972 68.647C56.2287 66.3352 61.24 63.978 66.2563 61.6359C66.8036 61.3785 67.5079 60.8132 67.9082 61.4744C68.3237 62.1659 67.4116 62.4738 66.9657 62.8423C62.6993 66.3806 58.4126 69.8938 54.1614 73.4472C53.908 73.6592 53.4571 73.8662 53.2493 74.1539C53.2493 74.1943 53.2493 74.2296 53.2493 74.27C53.2443 74.3558 53.1987 74.4315 53.1429 74.4971C53.1581 74.6435 53.224 74.8 53.4013 74.9918C54.0195 75.6581 54.511 74.7647 54.9316 74.4214C59.1271 71.0143 63.282 67.5618 67.4826 64.1648C68.0146 63.7357 68.6429 62.6252 69.2965 63.2411C70.0819 63.978 68.9571 64.6897 68.5314 65.2904C65.471 69.5657 62.3395 73.7905 59.2639 78.0557C58.8686 78.6008 57.8248 79.3277 58.7268 79.9283C59.5527 80.4785 59.9226 79.2722 60.3279 78.722C63.4948 74.4366 66.6161 70.1158 69.7779 65.8305C70.1579 65.3207 70.4873 64.2455 71.2169 64.6342C72.1239 65.1188 71.298 65.9869 71.0497 66.6179C69.1395 71.509 67.1735 76.3748 65.2531 81.2659C64.9795 81.9625 64.1079 83.0175 65.1365 83.391C66.1449 83.7544 66.1651 82.3461 66.4438 81.6748C68.4554 76.7534 70.386 71.7967 72.3874 66.8652C72.6104 66.315 72.6002 65.2197 73.5731 65.5276C74.3129 65.7648 73.8771 66.628 73.8062 67.1933C73.1272 72.7507 72.4128 78.303 71.7135 83.8554C71.6476 84.3702 71.3335 85.092 72.0986 85.2586C72.9397 85.4403 72.808 84.5973 72.9397 84.1229C73.0664 83.6585 73.0816 83.1689 73.1424 82.6894C73.8062 77.5105 74.4649 72.3267 75.1439 67.1479C75.2098 66.6431 75.0071 65.8254 75.7519 65.8002C76.6691 65.7699 76.436 66.6684 76.512 67.2236C77.2062 72.4983 77.8598 77.7781 78.5692 83.0528C78.6756 83.8604 78.3766 85.3494 79.4762 85.2031C80.5909 85.0567 79.8917 83.6686 79.8005 82.8812C79.1924 77.7326 78.483 72.5993 77.8598 67.4558C77.7787 66.7996 77.2467 65.7396 78.2196 65.4973C79.0657 65.2904 79.086 66.416 79.3191 66.9914C81.3155 71.9229 83.2612 76.8745 85.2272 81.8161C85.4046 82.2654 85.5667 82.7297 85.8201 83.1335C85.9366 83.3254 86.2609 83.5121 86.4788 83.497C86.9145 83.4667 87.0058 83.073 86.9145 82.7196C86.7777 82.1897 86.5751 81.6697 86.3724 81.1599C84.4368 76.2789 82.4809 71.403 80.5706 66.5119C80.3426 65.9213 79.5978 65.0733 80.3224 64.6695C81.2091 64.1749 81.5182 65.3307 81.9286 65.8809C84.8067 69.7777 87.6442 73.6996 90.4969 77.6165C90.9074 78.1768 91.3127 78.7371 91.7333 79.2873C92.0576 79.7062 92.3869 80.4129 93.0051 79.9031C93.5625 79.4387 93.0254 78.9087 92.7112 78.4645C92.392 78.0103 92.0576 77.5711 91.7333 77.1219C88.7184 72.9829 85.6985 68.8439 82.7039 64.6948C82.41 64.2909 81.6955 63.8468 82.1972 63.3016C82.8508 62.5849 83.2866 63.4278 83.7122 63.7761C86.8284 66.315 89.9294 68.8741 93.0304 71.4282C94.3681 72.5286 95.6855 73.6542 97.0384 74.7394C97.3881 75.0221 97.8289 75.5016 98.2951 75.012C98.9031 74.371 98.1887 74.0631 97.8289 73.7047" fill="#FFD05C"/>
<path d="M93.1163 18.7871L100.281 16.8791V29.5939C100.281 30.5328 100.327 31.3757 100.423 32.1228C100.519 32.8698 100.712 33.4604 101.001 33.8894C101.289 34.3235 101.73 34.5355 102.323 34.5355H93.0657C93.6585 34.5355 94.1399 34.3185 94.5047 33.8894C94.8695 33.4553 95.1381 32.8698 95.3002 32.1228C95.4674 31.3757 95.5485 30.5328 95.5485 29.5939V23.8952C95.5485 22.9564 95.4674 22.0983 95.3053 21.321C95.1431 20.5436 94.8898 19.9278 94.5351 19.4685C94.1855 19.0142 93.7092 18.782 93.1163 18.782V18.7871ZM97.1852 16.3138C96.42 16.3138 95.7613 16.0462 95.2242 15.5062C94.682 14.9661 94.4135 14.3149 94.4135 13.5527C94.4135 12.7906 94.682 12.1394 95.2242 11.5993C95.7664 11.0592 96.42 10.7917 97.1852 10.7917C97.9503 10.7917 98.6039 11.0592 99.1461 11.5993C99.6883 12.1394 99.9568 12.7906 99.9568 13.5527C99.9568 14.3149 99.6883 14.9661 99.1461 15.5062C98.6039 16.0462 97.9503 16.3138 97.1852 16.3138Z" fill="#FCB352"/>
<path d="M91.6316 50.612C91.6367 49.5924 91.586 48.699 91.4796 47.9216C91.3732 47.1494 91.1503 46.5386 90.8006 46.0995C90.4561 45.6553 89.9139 45.4332 89.1792 45.4281L91.657 45.4534L98.6646 45.519L100.889 45.5392C100.322 45.5341 99.8807 45.7159 99.5716 46.0793C99.2575 46.4427 99.0345 46.9424 98.8977 47.5734C98.7609 48.2043 98.6748 48.9261 98.6444 49.7287C98.6241 53.6607 98.6038 57.6029 98.5836 61.5602C98.5734 63.0341 98.7559 64.2102 99.1257 65.0834C99.4956 65.9566 99.9517 66.5472 100.494 66.8501C101.036 67.1529 101.573 67.1933 102.11 66.9712C102.647 66.7491 103.103 66.2797 103.478 65.5629C103.858 64.8462 104.051 63.9073 104.056 62.7514L104.107 53.2923C104.107 52.9389 104.107 52.5806 104.112 52.2121C104.132 51.1925 104.112 50.1779 104.071 49.1684C104.026 48.1589 103.823 44.9739 103.554 44.2773C103.286 43.5807 100.22 41.1478 99.5767 41.1428H115.457C114.59 41.1377 112.802 41.8898 111.641 44.3025C111.307 44.9941 111.145 51.3187 111.14 52.6714L111.033 73.9066C111.028 75.1533 110.851 76.3294 110.511 77.4348C112.325 78.7169 114.119 79.8021 115.892 80.7006C117.489 81.4375 119.161 81.7303 120.909 81.5789C122.657 81.4274 124.111 80.6905 125.266 79.3529C126.422 78.0203 126.898 75.9761 126.69 73.215C128.671 74.3558 129.781 75.9609 130.014 78.0153C130.247 80.0697 129.832 81.9978 128.763 83.7847C127.694 85.5715 126.214 86.6365 124.314 86.9697C122.87 87.111 121.304 86.8183 119.627 86.0813C117.945 85.3444 116.257 84.3702 114.55 83.1588C112.847 81.9473 111.226 80.7157 109.68 79.4538C108.302 82.0029 106.392 83.3102 103.95 83.3758C103.64 83.3758 103.382 83.3708 103.174 83.3657C103.083 83.3657 103.007 83.3657 102.941 83.3657C102.901 83.3657 102.87 83.3657 102.845 83.3657H102.825C102.526 83.3657 102.298 83.3657 102.13 83.3607C101.963 83.3607 101.75 83.3607 101.492 83.3556C101.234 83.3556 100.849 83.3506 100.332 83.3455C98.7204 83.3304 97.3928 83.0225 96.349 82.4269C95.3052 81.8313 94.5401 81.0741 94.0486 80.1656C93.5571 79.257 93.3443 78.303 93.4152 77.3036C93.5926 75.4057 94.1753 74.063 95.1684 73.2756C96.1615 72.4882 97.3016 72.0793 98.5937 72.0591C100.387 72.039 102.191 72.4983 104.005 73.427L104.036 67.4709C103.412 68.4855 102.617 69.2678 101.654 69.818C100.691 70.3682 99.7338 70.6408 98.7761 70.6307C97.0077 70.5802 95.594 69.9493 94.5249 68.7328C93.4608 67.5163 92.6957 65.9617 92.2346 64.0587C91.7735 62.1558 91.5607 60.1368 91.5962 57.9916L91.6367 50.6171L91.6316 50.612ZM103.99 77.0361C103.747 76.9149 103.514 76.8241 103.296 76.7635C102.267 76.4758 101.528 76.6272 101.077 77.2127C100.626 77.7982 100.392 78.6008 100.372 79.6053C100.327 80.3018 100.433 80.953 100.691 81.5637C100.945 82.1745 101.391 82.5329 102.019 82.6389C102.521 82.6893 102.961 82.4471 103.347 81.9171C103.732 81.3871 103.939 80.5744 103.97 79.4791L103.985 77.0361H103.99Z" fill="#FCB53F"/>
<path d="M16.8782 43.1112C12.1253 43.0708 8.47708 42.4197 5.93851 41.1527C3.39994 39.8858 1.70755 38.3362 0.86643 36.4938C0.0253066 34.6515 -0.202709 32.8242 0.182384 31.0122C0.567477 29.2001 1.31233 27.7161 2.4068 26.5652C4.11438 24.9046 5.96384 24.0768 7.97038 24.0768C9.97691 24.0768 11.725 24.6573 13.2249 25.8232C14.7298 26.9892 15.5962 28.4682 15.8293 30.2702C16.0624 32.0721 15.277 33.9448 13.4681 35.8881C13.5492 34.7575 13.2705 33.7833 12.627 32.9757C11.9885 32.168 11.1879 31.6784 10.2201 31.5018C9.2574 31.3302 8.34534 31.628 7.49408 32.3952C6.66309 33.3088 6.50095 34.4596 7.02285 35.8578C7.53968 37.256 8.59869 38.4775 10.1948 39.5325C11.7909 40.5874 13.762 41.0417 16.1232 40.9004C17.7092 40.6984 19.0013 39.8908 20.0096 38.4725C21.0129 37.0591 21.5044 35.4086 21.474 33.5258C21.4436 31.6431 20.6379 29.9017 19.0519 28.3016C16.939 26.3179 15.1098 24.7481 13.5644 23.5973C12.4851 22.7493 11.3855 21.8256 10.2556 20.8362C9.12566 19.8469 7.83357 18.5598 6.3692 16.9799C4.78323 15.1375 3.8509 13.1538 3.56208 11.0288C3.27833 8.90377 3.62795 6.93017 4.61095 5.11305C5.59902 3.29087 7.19513 1.93307 9.40941 1.0447C10.6255 0.600513 12.1811 0.312802 14.0711 0.181565C15.9661 0.0402325 17.8358 -0.0152909 19.6853 -0.000148136C23.9923 0.0402325 27.0375 0.645941 28.8262 1.82203C30.6148 2.99811 31.4864 4.41143 31.4458 6.07208C31.4458 7.71255 30.6706 8.99968 29.115 9.92843C27.5594 10.8622 25.3553 11.0439 22.4874 10.4736C23.2981 9.60539 23.6832 8.51006 23.6426 7.19265C23.6021 5.87523 23.1917 4.684 22.4114 3.60887C21.631 2.53878 20.5264 1.90784 19.1026 1.72612C17.5572 1.60498 16.2803 2.07945 15.2618 3.14954C14.2433 4.22467 13.8329 5.62285 14.0255 7.35417C14.218 9.08549 15.353 10.8723 17.4254 12.7147L28.0611 21.7599C30.5591 23.9657 32.0083 26.2927 32.4035 28.7407C32.7987 31.1888 32.363 33.4956 31.0911 35.661C29.8193 37.8264 27.9496 39.5981 25.4668 40.971C22.989 42.349 20.1211 43.0557 16.8731 43.096" fill="#FCB53F"/>
<path d="M43.3533 33.2584V32.9354C42.9378 33.4402 42.4007 33.8339 41.7521 34.1165C41.1035 34.3992 40.4549 34.5405 39.8114 34.5405C38.6156 34.5203 37.658 34.2175 36.9334 33.6219C36.2088 33.0263 35.692 32.259 35.3727 31.3151C35.0535 30.3712 34.9066 29.3769 34.9218 28.327V27.0499C34.9218 26.3887 34.8964 25.7779 34.8508 25.2076C34.8052 24.6372 34.6583 24.1829 34.4151 23.8397C34.1718 23.4964 33.7513 23.3248 33.1584 23.3248L39.6544 22.1134V30.0431C39.6544 30.775 39.781 31.3505 40.0344 31.7795C40.2877 32.2086 40.5968 32.5013 40.9616 32.6477C41.3265 32.7941 41.6913 32.8143 42.051 32.7083C42.4108 32.5972 42.7199 32.365 42.9732 32.0117C43.2266 31.6584 43.3533 31.194 43.3533 30.6186V29.1598L43.3381 27.0499C43.3381 26.3887 43.3127 25.7779 43.2621 25.2126C43.2114 24.6473 43.0594 24.193 42.806 23.8498C42.5527 23.5065 42.1321 23.3349 41.5393 23.3349L48.0859 22.1134V27.7263C48.0859 27.7768 48.0859 27.8575 48.0808 27.9585C48.0808 28.0645 48.0757 28.2109 48.0757 28.4027V29.1598H48.1011V31.0628C48.1011 31.724 48.1467 32.3145 48.2379 32.8395C48.3291 33.3644 48.5216 33.7783 48.8155 34.0812C49.1094 34.3841 49.5502 34.5355 50.1431 34.5355H43.3583V33.2584H43.3533Z" fill="#FCB53F"/>
<path d="M65.7748 31.088C65.7647 31.7745 65.8001 32.3802 65.8711 32.89C65.9471 33.4048 66.0991 33.8086 66.3372 34.1014C66.5703 34.3942 66.9402 34.5405 67.4368 34.5405H59.5272C59.9072 34.5405 60.2062 34.4144 60.4139 34.162C60.6267 33.9096 60.7737 33.5765 60.8649 33.1525C60.9561 32.7335 61.0118 32.259 61.027 31.7341V23.8649C61.027 22.8857 60.9003 22.1033 60.647 21.5279C60.3936 20.9474 60.0845 20.5638 59.7248 20.3619C59.36 20.16 59.0002 20.1398 58.6354 20.2912C58.2706 20.4427 57.9615 20.7556 57.7081 21.2301C57.4548 21.7046 57.3281 22.3305 57.3281 23.1128V29.387C57.3382 29.6192 57.3382 29.8665 57.3281 30.1239C57.318 30.8003 57.3332 31.4767 57.3737 32.148C57.4142 32.8193 57.5206 33.3847 57.698 33.849C57.8753 34.3084 58.1895 34.5405 58.6354 34.5405H50.4623C51.0551 34.5405 51.5061 34.3336 51.8101 33.9247C52.1141 33.5159 52.3219 32.9607 52.4334 32.254C52.5398 31.5473 52.5955 30.7498 52.5955 29.8614V27.3528C52.5955 27.272 52.5955 27.2064 52.6107 27.161V24.4605C52.6107 23.5722 52.5296 22.7595 52.3624 22.0226C52.1952 21.2856 51.9317 20.7001 51.572 20.2711C51.2122 19.837 50.7308 19.6199 50.1431 19.6199L57.3585 17.8179L57.3332 19.9732C57.7487 19.2969 58.2858 18.7669 58.9343 18.3883C59.5829 18.0097 60.2315 17.8179 60.875 17.8179C62.0759 17.8533 63.0437 18.2722 63.7632 19.0697C64.4878 19.8723 65.0046 20.902 65.3289 22.1639C65.6481 23.4258 65.7951 24.7634 65.7799 26.1767V31.083L65.7748 31.088Z" fill="#FCB53F"/>
<path d="M81.5941 43.1113H64.4473C65.5519 43.1113 66.4285 42.7883 67.067 42.1472C67.7105 41.5062 68.1665 40.633 68.435 39.5275C68.7036 38.4272 68.8353 37.1703 68.8353 35.757V13.5628C68.8353 12.2605 69.038 11.0289 69.4485 9.87304C67.1734 8.55058 64.9033 7.43002 62.6435 6.5164C60.642 5.76432 58.5392 5.47156 56.3249 5.64822C54.1157 5.82489 52.2865 6.61231 50.8475 8.01553C49.4084 9.41876 48.8257 11.564 49.1044 14.4461C46.581 13.2701 45.1724 11.6094 44.8735 9.46419C44.5745 7.31897 45.0863 5.30499 46.4088 3.42224C47.7312 1.5395 49.5908 0.418934 51.9825 0.0504608C53.8218 -0.116109 55.7979 0.17665 57.9109 0.928739C60.0238 1.68083 62.157 2.68025 64.3105 3.93205C66.464 5.1788 68.5212 6.45583 70.472 7.75811C72.1948 5.07785 74.6016 3.69481 77.6925 3.59891H82.2528C84.2695 3.59891 85.9416 3.90681 87.2641 4.52261C88.5916 5.13842 89.5594 5.91574 90.1776 6.86469C90.7958 7.80858 91.0745 8.808 91.0086 9.85285C90.7958 11.8365 90.0661 13.2448 88.8146 14.0827C87.563 14.9156 86.124 15.3547 84.4975 15.39C82.2376 15.4254 79.9676 14.966 77.6925 14.0121V29.6797L83.2307 23.0725C84.2036 21.6389 84.8015 20.3316 85.0092 19.1505C85.2221 17.9643 84.9434 17.2072 84.1783 16.8791H93.3039C92.3615 17.1012 91.0947 17.7725 89.5087 18.888C87.9228 20.0086 86.5699 21.3209 85.4501 22.8251L83.2307 25.5811L88.9159 36.6504C90.1016 38.8007 91.343 40.3604 92.6351 41.3295C93.9272 42.3037 94.9609 42.8993 95.7462 43.1214H88.9868C87.411 43.1214 85.8149 42.7126 84.2087 41.8949C82.5973 41.0772 81.3154 39.8052 80.3577 38.0789L78.944 35.3835L77.6975 32.9354V35.7722C77.6975 37.1855 77.7887 38.4423 77.9813 39.5427C78.1688 40.6481 78.5437 41.5163 79.1062 42.1624C79.6686 42.8034 80.4996 43.1265 81.6042 43.1265L81.5941 43.1113ZM77.7026 12.1747C78.0117 12.3211 78.2955 12.4322 78.5589 12.5028C79.8612 12.8511 80.7884 12.6593 81.3509 11.9274C81.9133 11.1905 82.2072 10.2011 82.2427 8.95438C82.2731 8.09125 82.1312 7.28364 81.8018 6.53155C81.4775 5.77946 80.9151 5.34032 80.1196 5.20908C79.5014 5.15356 78.9491 5.45641 78.4627 6.11765C77.9762 6.77888 77.7229 7.78839 77.7077 9.14619V12.1747H77.7026Z" fill="#FCB53F"/>
<path d="M136.758 34.3992C136.135 34.4951 135.294 34.4547 134.296 34.4043C133.252 34.3538 132.73 34.3285 132.376 34.2225C130.703 33.7279 129.872 31.8603 129.274 30.5126C128.388 28.5188 128.352 26.8026 128.352 26.3534C128.352 24.7937 128.666 23.3904 129.295 22.1387C129.923 20.8919 130.759 19.9026 131.798 19.1757C132.842 18.4489 133.982 18.0854 135.218 18.0854C136.921 18.0854 138.42 18.7013 139.713 19.9379C141.005 21.1746 141.815 22.8655 142.14 25.0158H133.07C133.201 26.5654 133.617 27.802 134.326 28.7257C135.031 29.6494 135.872 30.2097 136.845 30.4066C137.817 30.6034 138.765 30.3763 139.692 29.7302C140.62 29.0841 141.375 27.9585 141.962 26.3483C141.983 27.3477 141.861 28.8923 141.04 30.5075C140.766 31.0476 139.267 34.0055 136.764 34.3942L136.758 34.3992ZM133.054 23.9255H135.664C136.333 23.8902 136.779 23.6075 137.002 23.0775C137.225 22.5475 137.27 21.9468 137.133 21.2755C136.997 20.6042 136.728 20.0439 136.318 19.5947C136.009 19.2716 135.689 19.1 135.355 19.0748C134.813 19.1101 134.377 19.4231 134.037 20.0136C133.698 20.6042 133.46 21.1897 133.333 21.7803C133.156 22.5576 133.065 23.2693 133.054 23.9305" fill="#FCB53F"/>
<path d="M159.94 41.481C159.357 40.5875 159.064 39.467 159.064 38.1193V27.4134C158.471 27.5042 157.863 27.4689 157.295 27.272C155.785 26.7471 154.219 26.414 152.674 26.0152V28.1907C152.005 27.3932 151.276 26.838 150.495 26.52C149.71 26.202 148.98 26.0455 148.296 26.0455C146.862 26.0455 145.676 26.3887 144.739 27.0752C143.802 27.7617 143.102 28.7005 142.636 29.8917C142.17 31.083 141.932 32.4458 141.922 33.9853C141.886 36.4384 142.347 38.4524 143.31 40.0323C144.268 41.6122 145.666 42.5006 147.501 42.6974C148.337 42.7933 149.239 42.763 150.211 42.6116C151.184 42.4602 152.005 41.9605 152.674 41.1175V42.8236H162.615C161.415 42.8236 160.523 42.3794 159.94 41.486V41.481ZM152.674 37.8972C152.674 39.0228 152.421 39.8203 151.904 40.2796C151.392 40.744 150.809 40.85 150.156 40.5976C149.502 40.3453 148.93 39.7143 148.433 38.6947C147.941 37.6801 147.688 36.2618 147.673 34.4446C147.754 31.7593 148.195 29.9927 148.99 29.1548C149.786 28.3169 150.576 28.115 151.367 28.5541C152.157 28.9933 152.588 29.8009 152.674 30.977V37.8921V37.8972Z" fill="#FCB53F"/>
<path d="M168.392 7.93476C167.946 7.32905 167.242 6.82934 166.284 6.44068C165.326 6.04697 164.115 5.85011 162.656 5.85011H159.337C157.113 5.91069 155.375 6.79401 154.128 8.50514C152.714 7.67229 151.23 6.85963 149.669 6.05706C148.109 5.25955 146.563 4.61851 145.033 4.13899C143.503 3.65947 142.074 3.47271 140.741 3.57366C139.013 3.80585 137.665 4.52765 136.708 5.72897C135.75 6.9303 135.375 8.21743 135.598 9.59037C135.816 10.9633 136.834 12.0283 138.659 12.7754C138.461 10.933 138.882 9.56008 139.92 8.66666C140.964 7.76819 142.281 7.26344 143.883 7.15239C145.484 7.04134 147.009 7.2281 148.453 7.70762C150.09 8.29314 151.731 9.0099 153.378 9.85284C153.084 10.5898 152.937 11.3772 152.937 12.2101L152.669 30.3662C154.098 30.6287 155.005 32.1278 156.591 31.9814C157.229 31.9259 158.435 33.3039 159.058 33.2988L159.327 12.4927C160.989 13.1035 162.636 13.3962 164.272 13.376C165.448 13.3508 166.492 13.0732 167.399 12.5382C168.306 12.0031 168.838 11.1046 168.99 9.8377C169.035 9.17142 168.838 8.53542 168.387 7.92972L168.392 7.93476ZM161.987 11.1602C161.582 11.6296 160.908 11.7507 159.965 11.5286C159.778 11.4832 159.565 11.4125 159.332 11.3166V9.38342C159.357 8.51523 159.545 7.86914 159.899 7.4502C160.254 7.03125 160.654 6.83439 161.1 6.86972C161.678 6.95049 162.083 7.23315 162.316 7.71267C162.55 8.19219 162.656 8.71209 162.636 9.26228C162.61 10.0598 162.398 10.6958 161.992 11.1652" fill="#FCB53F"/>
<path d="M57.9361 63.6196C57.9361 65.3207 57.779 67.3195 57.4649 69.6161C57.1507 71.9077 56.4616 74.1236 55.3975 76.2588C54.3335 78.3888 52.707 80.1454 50.5281 81.5284C48.3443 82.9064 45.4105 83.5727 41.7318 83.5323C36.8067 83.2951 33.2243 81.9676 30.9745 79.5397C28.7248 77.1168 27.5898 74.3255 27.5594 71.1708C27.534 68.0161 28.3904 65.2147 30.1385 62.7666C31.8866 60.3236 34.2884 58.9355 37.3438 58.6124C39.8773 58.5468 41.823 59.1929 43.1708 60.5507C44.5237 61.9085 45.2534 63.5692 45.3649 65.5276C45.4763 67.4911 44.919 69.3436 43.6978 71.085C43.7687 69.7272 43.4799 68.6117 42.8212 67.7384C42.1625 66.8652 41.1136 66.4513 39.6695 66.4917C38.2102 66.6431 37.0499 67.4457 36.1885 68.8994C35.3271 70.3531 34.8711 72.0188 34.8153 73.8914C34.7596 75.7641 35.2258 77.4197 36.2189 78.8532C37.207 80.2867 38.8233 81.0439 41.063 81.1297C43.3735 81.064 45.0203 80.1101 46.0033 78.2677C46.9863 76.4253 47.569 74.2549 47.7514 71.7563C47.9389 69.2578 47.9896 66.9914 47.9186 64.9673C47.8984 64.4727 47.8933 64.0184 47.8933 63.6095H47.8629V46.2509C47.8629 43.7726 47.3055 41.7182 46.1958 40.0777C45.0862 38.4423 43.5863 37.6196 41.7014 37.6196H63.6568C61.7718 37.6196 60.3429 38.4373 59.3802 40.0777C58.4175 41.7132 57.9361 43.7726 57.9361 46.2509V63.6095V63.6196Z" fill="#FCB53F"/>
<path d="M103.559 24.5009C103.813 26.3887 104.426 28.2058 105.404 29.9523C106.377 31.6937 107.375 32.6931 108.393 32.9405C109.158 33.0212 109.655 32.7335 109.893 32.0824C110.126 31.4312 110.121 30.6438 109.873 29.7151C109.625 28.7863 109.138 27.9434 108.424 27.1812L105.1 23.7185C104.167 22.6787 103.58 21.432 103.336 19.9631C103.098 18.4993 103.184 17.0911 103.6 15.7333C104.015 14.3755 104.735 13.3609 105.764 12.6795C106.828 12.0435 108.196 11.7507 109.863 11.7962C111.849 11.8416 113.263 12.3161 114.089 13.2145C114.92 14.113 115.325 15.1982 115.305 16.4652C115.305 17.722 114.945 18.7013 114.231 19.4029C113.516 20.1095 112.493 20.2509 111.16 19.8319C111.54 19.1656 111.758 18.3277 111.809 17.3233C111.864 16.3137 111.753 15.4001 111.469 14.5824C111.185 13.7647 110.719 13.2802 110.071 13.1439C109.371 13.0682 108.86 13.3559 108.53 14.0171C108.201 14.6733 108.089 15.4658 108.201 16.3844C108.307 17.3081 108.667 18.1309 109.27 18.8577L112.634 22.598C113.096 23.0977 113.526 23.6428 113.932 24.2384C114.332 24.8341 114.661 25.4953 114.92 26.2272C115.178 26.954 115.31 27.7768 115.31 28.6904C115.31 29.9321 115.107 30.9467 114.712 31.7341C114.312 32.5215 113.8 33.1373 113.187 33.5714C112.954 33.7329 112.751 33.844 112.645 33.9045C111.874 34.3184 111.165 34.4648 110.608 34.5405C110.212 34.5961 109.751 34.6415 107.598 34.6163C106.265 34.6011 105.875 34.5607 104.836 34.5809C104.299 34.591 103.757 34.6011 103.22 34.6112C103.331 31.2445 103.443 27.8727 103.559 24.506V24.5009Z" fill="#FCB53F"/>
<path d="M116.607 26.2625C116.84 27.8121 117.408 29.2961 118.315 30.7246C119.217 32.153 120.139 32.9657 121.081 33.1676C121.786 33.2332 122.247 32.996 122.465 32.4609C122.682 31.9309 122.677 31.2798 122.444 30.5227C122.211 29.7605 121.765 29.069 121.107 28.4481L118.036 25.6114C117.175 24.7634 116.627 23.7387 116.409 22.5374C116.187 21.3361 116.268 20.1852 116.653 19.0748C117.038 17.9643 117.702 17.1314 118.654 16.5712C119.637 16.0513 120.904 15.809 122.444 15.8494C124.284 15.8897 125.586 16.2734 126.351 17.0103C127.116 17.7472 127.491 18.6356 127.476 19.6754C127.476 20.7051 127.146 21.5077 126.483 22.0831C125.819 22.6636 124.876 22.7797 123.645 22.4364C123.995 21.8913 124.197 21.2048 124.248 20.3821C124.304 19.5593 124.197 18.8072 123.934 18.1359C123.676 17.4646 123.24 17.0709 122.642 16.9548C121.998 16.8892 121.522 17.1314 121.218 17.6665C120.914 18.2066 120.813 18.8527 120.909 19.6048C121.01 20.3619 121.34 21.0332 121.897 21.6339L125.008 24.6978C125.434 25.1066 125.834 25.5508 126.204 26.0404C126.574 26.53 126.878 27.0701 127.116 27.6657C127.354 28.2613 127.476 28.9377 127.476 29.6848C127.476 30.6993 127.288 31.5322 126.924 32.1783C126.554 32.8244 126.082 33.3241 125.51 33.6824C125.297 33.8187 125.11 33.9045 125.008 33.955C124.299 34.2932 123.64 34.4143 123.128 34.48C122.764 34.5254 122.338 34.5658 120.347 34.5405C119.115 34.5254 118.75 34.4951 117.798 34.5102C117.301 34.5203 116.8 34.5254 116.303 34.5355C116.409 31.7795 116.511 29.0185 116.617 26.2625H116.607Z" fill="#FCB53F"/>
</g>
<defs>
<clipPath id="clip0_457_16">
<rect width="169" height="87" fill="white"/>
</clipPath>
</defs>
</svg>
